<?xml version="1.0" encoding="utf-8"?>
<!-- Generator: Adobe Illustrator 26.2.1, SVG Export Plug-In . SVG Version: 6.00 Build 0)  -->
<svg version="1.1" id="Artwork" xmlns="http://www.w3.org/2000/svg" xmlns:xlink="http://www.w3.org/1999/xlink" x="0px" y="0px"
	 width="120.08px" height="35.016px" viewBox="0 0 120.08 35.016" style="enable-background:new 0 0 120.08 35.016;"
	 xml:space="preserve">
<style type="text/css">
	.st0{fill:#FFFFFF;}
	.st1{fill:#F79918;}
	.st2{fill:#FAAC28;}
	.st3{fill:#FDBF47;}
	.st4{fill:#FFD364;}
	.st5{fill:#FFF080;}
</style>
<g id="XMLID_20_">
	<g id="XMLID_41_">
		<path id="XMLID_42_" d="M110.677,0H8.108c-0.312,0-0.62,0-0.931,0.002c-0.26,0.002-0.519,0.007-0.781,0.011
			C5.83,0.027,5.257,0.061,4.692,0.163c-0.569,0.1-1.098,0.27-1.617,0.533c-0.509,0.261-0.974,0.6-1.376,1.002
			c-0.407,0.403-0.744,0.87-1.002,1.379C0.432,3.594,0.264,4.126,0.165,4.695C0.063,5.258,0.027,5.828,0.013,6.398
			C0.005,6.659,0.004,6.92,0,7.181c0,0.308,0,0.617,0,0.928v17.798c0,0.314,0,0.621,0,0.93c0.004,0.264,0.005,0.52,0.013,0.784
			c0.015,0.57,0.05,1.139,0.152,1.702c0.099,0.57,0.267,1.104,0.531,1.619c0.258,0.507,0.595,0.973,1.002,1.373
			c0.402,0.406,0.867,0.744,1.376,1.002c0.518,0.266,1.047,0.434,1.617,0.536c0.565,0.101,1.138,0.135,1.704,0.15
			c0.263,0.006,0.521,0.009,0.781,0.009c0.311,0.002,0.619,0.002,0.931,0.002h102.568c0.306,0,0.916,0,1.222-0.002
			c0.259,0,0.525-0.003,0.784-0.009c0.57-0.016,1.141-0.049,1.701-0.15c0.57-0.103,1.099-0.271,1.623-0.536
			c0.508-0.258,0.973-0.596,1.375-1.002c0.405-0.399,0.742-0.866,1.005-1.373c0.261-0.516,0.43-1.05,0.526-1.619
			c0.105-0.563,0.138-1.133,0.158-1.702c0.003-0.264,0.003-0.52,0.003-0.784c0.007-0.309,0.007-0.616,0.007-0.93V8.109
			c0-0.311,0-0.62-0.007-0.928c0-0.261,0-0.522-0.003-0.783c-0.02-0.57-0.053-1.139-0.158-1.702
			c-0.096-0.57-0.266-1.101-0.526-1.619c-0.262-0.509-0.6-0.976-1.005-1.379c-0.402-0.403-0.867-0.742-1.375-1.002
			c-0.523-0.263-1.053-0.434-1.623-0.533c-0.56-0.101-1.131-0.136-1.701-0.15c-0.259-0.004-0.525-0.009-0.784-0.011
			C111.593,0,110.982,0,110.677,0L110.677,0z"/>
	</g>
	<path id="XMLID_44_" class="st0" d="M110.677,0.7c0.305,0,0.913,0,1.217,0.002c0.208,0.001,0.421,0.005,0.631,0.008l0.14,0.002
		c0.444,0.011,1.027,0.037,1.598,0.14c0.512,0.09,0.98,0.243,1.424,0.466c0.445,0.228,0.848,0.522,1.201,0.876
		c0.348,0.346,0.643,0.751,0.873,1.197c0.224,0.445,0.375,0.909,0.463,1.431c0.098,0.527,0.128,1.08,0.146,1.583
		c0.003,0.258,0.003,0.517,0.003,0.789c0.007,0.303,0.006,0.607,0.006,0.913v17.798c0,0.309,0,0.611-0.007,0.93
		c0,0.261,0,0.514-0.003,0.759c-0.018,0.519-0.049,1.072-0.148,1.61c-0.087,0.514-0.238,0.978-0.458,1.414
		c-0.235,0.453-0.529,0.855-0.881,1.202c-0.348,0.352-0.75,0.645-1.195,0.871c-0.445,0.226-0.899,0.376-1.43,0.472
		c-0.547,0.099-1.114,0.126-1.592,0.139c-0.254,0.006-0.514,0.009-0.772,0.009c-0.305,0.002-0.913,0.002-1.218,0.002H8.108
		c-0.311,0-0.617,0-0.931-0.002c-0.255,0-0.508-0.003-0.762-0.009c-0.481-0.013-1.047-0.04-1.599-0.139
		c-0.524-0.095-0.989-0.249-1.424-0.472c-0.444-0.225-0.847-0.518-1.203-0.878c-0.348-0.341-0.64-0.742-0.869-1.193
		c-0.221-0.432-0.374-0.896-0.466-1.425c-0.104-0.569-0.13-1.151-0.141-1.598c-0.005-0.176-0.007-0.349-0.009-0.523L0.7,26.837
		v-0.93V8.109l0-0.917l0.003-0.253c0.002-0.173,0.004-0.347,0.009-0.523c0.011-0.444,0.038-1.026,0.142-1.6
		C0.946,4.295,1.098,3.83,1.321,3.393c0.227-0.448,0.52-0.85,0.873-1.2C2.546,1.841,2.95,1.547,3.392,1.32
		C3.835,1.095,4.3,0.942,4.815,0.852C5.388,0.749,5.97,0.723,6.407,0.712l0.17-0.003C6.78,0.706,6.98,0.703,7.181,0.702L8.108,0.7
		H110.677"/>
	<g id="XMLID_40_">
		<g>
			<path d="M39.147,23.671h-4.028l-0.967,2.856h-1.707l3.816-10.568h1.772l3.816,10.568h-1.736L39.147,23.671z M35.536,22.352h3.193
				l-1.575-4.636h-0.044L35.536,22.352z"/>
			<path d="M50.082,22.675c0,2.396-1.282,3.933-3.215,3.933c-1.099,0-1.97-0.49-2.424-1.348h-0.037v3.816h-1.582V18.822h1.531v1.281
				h0.029c0.439-0.827,1.377-1.361,2.454-1.361C48.793,18.742,50.082,20.287,50.082,22.675z M48.456,22.675
				c0-1.56-0.806-2.585-2.036-2.585c-1.208,0-2.021,1.047-2.021,2.585c0,1.553,0.813,2.593,2.021,2.593
				C47.65,25.267,48.456,24.25,48.456,22.675z"/>
			<path d="M58.556,22.675c0,2.396-1.282,3.933-3.215,3.933c-1.099,0-1.97-0.49-2.424-1.348H52.88v3.816h-1.582V18.822h1.531v1.281
				h0.029c0.439-0.827,1.377-1.361,2.454-1.361C57.267,18.742,58.556,20.287,58.556,22.675z M56.93,22.675
				c0-1.56-0.806-2.585-2.036-2.585c-1.208,0-2.021,1.047-2.021,2.585c0,1.553,0.813,2.593,2.021,2.593
				C56.125,25.267,56.93,24.25,56.93,22.675z"/>
			<path d="M59.831,15.959h1.582v10.568h-1.582V15.959z"/>
			<path d="M69.645,24.264c-0.212,1.399-1.575,2.359-3.318,2.359c-2.241,0-3.633-1.502-3.633-3.912c0-2.416,1.399-3.984,3.567-3.984
				c2.131,0,3.472,1.465,3.472,3.802v0.542h-5.442v0.096c0,1.318,0.828,2.182,2.073,2.182c0.879,0,1.567-0.417,1.78-1.084H69.645z
				 M64.298,21.965h3.853c-0.037-1.18-0.791-1.956-1.89-1.956C65.17,20.009,64.379,20.8,64.298,21.965z"/>
			<path d="M81.254,26.527v-4.68h-5.427v4.68h-1.641V15.959h1.641v4.467h5.427v-4.467h1.641v10.568H81.254z"/>
			<path d="M84.182,22.675c0-2.425,1.429-3.948,3.655-3.948c2.233,0,3.654,1.523,3.654,3.948c0,2.432-1.413,3.948-3.654,3.948
				S84.182,25.106,84.182,22.675z M89.881,22.675c0-1.663-0.762-2.644-2.043-2.644c-1.282,0-2.044,0.988-2.044,2.644
				c0,1.67,0.762,2.644,2.044,2.644C89.119,25.318,89.881,24.345,89.881,22.675z"/>
			<path d="M92.773,18.822h1.509v1.318h0.036c0.345-0.871,1.18-1.406,2.19-1.406c1.069,0,1.846,0.549,2.153,1.509h0.036
				c0.396-0.938,1.304-1.509,2.402-1.509c1.523,0,2.52,1.011,2.52,2.549v5.244h-1.589v-4.871c0-0.988-0.535-1.56-1.473-1.56
				s-1.589,0.688-1.589,1.663v4.768h-1.553v-4.98c0-0.887-0.564-1.45-1.458-1.45c-0.938,0-1.604,0.726-1.604,1.722v4.709h-1.582
				V18.822z"/>
			<path d="M111.85,24.264c-0.212,1.399-1.574,2.359-3.317,2.359c-2.241,0-3.633-1.502-3.633-3.912c0-2.416,1.398-3.984,3.566-3.984
				c2.132,0,3.472,1.465,3.472,3.802v0.542h-5.441v0.096c0,1.318,0.827,2.182,2.072,2.182c0.879,0,1.567-0.417,1.78-1.084H111.85z
				 M106.504,21.965h3.853c-0.036-1.18-0.791-1.956-1.89-1.956C107.376,20.009,106.585,20.8,106.504,21.965z"/>
		</g>
	</g>
	<g>
		<path d="M34.333,12.544h-0.744L32.224,7.48h0.817l0.931,3.878h0.049l1.057-3.878h0.729l1.063,3.878h0.05l0.926-3.878h0.818
			l-1.369,5.064h-0.74l-1.088-3.717h-0.05L34.333,12.544z"/>
		<path d="M39.078,10.632c0-1.232,0.688-1.983,1.805-1.983c1.112,0,1.8,0.751,1.8,1.983c0,1.239-0.685,1.986-1.8,1.986
			C39.763,12.618,39.078,11.871,39.078,10.632z M41.907,10.632c0-0.828-0.372-1.312-1.024-1.312c-0.657,0-1.025,0.484-1.025,1.312
			c0,0.835,0.368,1.316,1.025,1.316C41.535,11.948,41.907,11.463,41.907,10.632z"/>
		<path d="M43.703,8.723h0.727v0.586h0.057c0.108-0.375,0.533-0.649,1.031-0.649c0.112,0,0.257,0.011,0.337,0.032v0.744
			c-0.062-0.021-0.287-0.046-0.421-0.046c-0.572,0-0.976,0.362-0.976,0.898v2.257h-0.755V8.723z"/>
		<path d="M49.061,8.723h0.891l-1.572,1.639l1.678,2.183H49.13l-1.312-1.685l-0.333,0.316v1.369h-0.755V7.231h0.755v3.085h0.06
			L49.061,8.723z"/>
		<path d="M52.112,8.649c0.859,0,1.421,0.4,1.495,1.074h-0.724c-0.07-0.281-0.344-0.459-0.771-0.459c-0.422,0-0.741,0.2-0.741,0.498
			c0,0.229,0.193,0.372,0.607,0.467l0.636,0.147c0.727,0.168,1.066,0.481,1.066,1.042c0,0.719-0.67,1.2-1.583,1.2
			c-0.908,0-1.502-0.411-1.568-1.088h0.755c0.095,0.295,0.375,0.477,0.831,0.477c0.471,0,0.804-0.21,0.804-0.516
			c0-0.228-0.179-0.375-0.562-0.467l-0.667-0.154c-0.726-0.172-1.062-0.499-1.062-1.067C50.628,9.126,51.249,8.649,52.112,8.649z"/>
		<path d="M60.708,12.544h-0.782l-0.79-2.814h-0.06l-0.786,2.814h-0.775l-1.053-3.822h0.765l0.685,2.917h0.057l0.786-2.917h0.723
			l0.786,2.917h0.06l0.681-2.917h0.755L60.708,12.544z"/>
		<path d="M62.557,7.592c0-0.263,0.207-0.463,0.487-0.463c0.281,0,0.488,0.2,0.488,0.463c0,0.26-0.207,0.46-0.488,0.46
			C62.764,8.052,62.557,7.852,62.557,7.592z M62.669,8.723h0.751v3.822h-0.751V8.723z"/>
		<path d="M65.661,7.771V8.74h0.828v0.635h-0.828v1.965c0,0.4,0.165,0.575,0.541,0.575c0.115,0,0.182-0.007,0.287-0.017v0.628
			c-0.122,0.021-0.263,0.039-0.41,0.039c-0.839,0-1.172-0.295-1.172-1.032V9.375H64.3V8.74h0.607V7.771H65.661z"/>
		<path d="M67.525,7.231h0.748v2.106h0.06c0.186-0.428,0.59-0.685,1.165-0.685c0.814,0,1.316,0.516,1.316,1.425v2.467H70.06v-2.281
			c0-0.61-0.284-0.919-0.817-0.919c-0.618,0-0.962,0.39-0.962,0.969v2.232h-0.755V7.231z"/>
	</g>
	<g id="XMLID_21_">
		<g id="XMLID_22_">
			<path id="XMLID_37_" class="st1" d="M27.602,14.652c-0.093-0.073-0.904-0.714-2.032-1.605l0,0V9.402
				c0-0.247-0.098-0.318-0.274-0.318h-1.857c-0.203,0-0.327,0.04-0.327,0.318v1.705l-0.001,0c-2.685-2.121-5.598-4.42-5.708-4.508
				c-0.22-0.174-0.357-0.219-0.513-0.219c-0.155,0-0.293,0.045-0.513,0.219c-0.22,0.174-9.906,7.823-10.199,8.054
				c-0.358,0.282-0.257,0.689,0.141,0.689c0.283,0,1.891,0,1.891,0s0,9.696,0,10.261c0,0.663,0.265,0.928,0.896,0.928
				c0.437,0,7.783,0,7.783,0s7.347,0,7.783,0c0.631,0,0.896-0.265,0.896-0.928c0-0.566,0-10.261,0-10.261s1.609,0,1.891,0
				C27.858,15.341,27.959,14.935,27.602,14.652z M23.978,24.162c0,0.459-0.236,0.777-0.715,0.777c-0.479,0-6.374,0-6.374,0
				s-5.896,0-6.374,0c-0.479,0-0.715-0.318-0.715-0.777c0-0.379,0-9.153,0-9.59c0-0.557,0.243-0.912,0.522-1.132
				c0.278-0.22,5.968-4.713,6.13-4.841c0.162-0.128,0.301-0.183,0.437-0.183c0.132,0,0.275,0.055,0.437,0.183
				c0.162,0.128,5.852,4.621,6.13,4.841c0.278,0.22,0.522,0.575,0.522,1.132C23.978,15.01,23.978,23.783,23.978,24.162z"/>
			<path id="XMLID_34_" class="st2" d="M23.457,13.44c-0.278-0.22-5.968-4.713-6.13-4.841c-0.162-0.128-0.305-0.183-0.437-0.183
				c-0.136,0-0.275,0.055-0.437,0.183c-0.162,0.128-5.852,4.621-6.13,4.841c-0.278,0.22-0.522,0.575-0.522,1.132
				c0,0.437,0,9.211,0,9.59c0,0.459,0.236,0.777,0.715,0.777c0.479,0,6.374,0,6.374,0s5.896,0,6.374,0
				c0.479,0,0.715-0.318,0.715-0.777c0-0.379,0-9.153,0-9.59C23.978,14.015,23.735,13.66,23.457,13.44z M22.387,22.723
				c0,0.427-0.241,0.626-0.597,0.626c-0.355,0-4.901,0-4.901,0s-4.546,0-4.901,0s-0.597-0.199-0.597-0.626c0-0.295,0-7.103,0-7.489
				c0-0.415,0.097-0.653,0.392-0.887c0.166-0.132,4.626-3.653,4.745-3.747c0.119-0.094,0.246-0.143,0.362-0.143
				c0.114,0,0.242,0.049,0.362,0.143c0.119,0.094,4.579,3.615,4.745,3.747c0.294,0.233,0.392,0.472,0.392,0.887
				C22.387,15.619,22.387,22.428,22.387,22.723z"/>
			<path id="XMLID_31_" class="st3" d="M21.996,14.347c-0.166-0.132-4.626-3.653-4.745-3.747c-0.119-0.094-0.247-0.143-0.362-0.143
				c-0.115,0-0.242,0.049-0.362,0.143c-0.119,0.094-4.579,3.615-4.745,3.747c-0.294,0.233-0.392,0.472-0.392,0.887
				c0,0.385,0,7.194,0,7.489c0,0.427,0.241,0.626,0.597,0.626s4.901,0,4.901,0s4.546,0,4.901,0c0.355,0,0.597-0.199,0.597-0.626
				c0-0.295,0-7.103,0-7.489C22.387,14.819,22.29,14.581,21.996,14.347z M20.797,21.283c0,0.342-0.19,0.475-0.451,0.475
				c-0.26,0-3.456,0-3.456,0s-3.196,0-3.456,0s-0.451-0.133-0.451-0.475c0-0.21,0-5.146,0-5.387c0-0.24,0-0.431,0.262-0.641
				c0.172-0.138,3.267-2.58,3.36-2.653c0.093-0.073,0.184-0.111,0.286-0.111c0.097,0,0.193,0.038,0.286,0.111
				c0.093,0.073,3.187,2.515,3.36,2.653c0.262,0.21,0.262,0.401,0.262,0.641C20.797,16.136,20.797,21.073,20.797,21.283z"/>
			<path id="XMLID_28_" class="st4" d="M20.535,15.255c-0.172-0.138-3.267-2.58-3.36-2.653c-0.093-0.073-0.189-0.111-0.286-0.111
				c-0.102,0-0.193,0.038-0.286,0.111c-0.093,0.073-3.187,2.515-3.36,2.653c-0.262,0.21-0.262,0.401-0.262,0.641
				c0,0.24,0,5.177,0,5.387c0,0.342,0.19,0.475,0.451,0.475s3.456,0,3.456,0s3.196,0,3.456,0c0.26,0,0.451-0.133,0.451-0.475
				c0-0.21,0-5.146,0-5.387C20.797,15.656,20.797,15.465,20.535,15.255z M19.206,19.843c0,0.264-0.133,0.324-0.318,0.324
				c-0.122,0-1.998,0-1.998,0s-1.876,0-1.998,0c-0.186,0-0.318-0.06-0.318-0.324c0-0.171,0-3.11,0-3.285
				c0-0.175,0.073-0.355,0.226-0.48c0.082-0.066,1.817-1.426,1.879-1.475c0.062-0.049,0.155-0.077,0.21-0.077
				c0.056,0,0.148,0.028,0.21,0.077c0.062,0.049,1.798,1.409,1.879,1.475c0.153,0.125,0.226,0.305,0.226,0.48
				C19.206,16.733,19.206,19.671,19.206,19.843z"/>
			<path id="XMLID_27_" class="st5" d="M16.89,20.167c0,0,1.876,0,1.998,0c0.186,0,0.318-0.06,0.318-0.324c0-0.171,0-3.11,0-3.285
				c0-0.175-0.073-0.355-0.226-0.48c-0.082-0.066-1.817-1.426-1.879-1.475s-0.155-0.077-0.21-0.077s-0.148,0.028-0.21,0.077
				c-0.062,0.049-1.798,1.409-1.879,1.475c-0.153,0.125-0.226,0.305-0.226,0.48c0,0.175,0,3.113,0,3.285
				c0,0.264,0.133,0.324,0.318,0.324C15.014,20.167,16.89,20.167,16.89,20.167z"/>
		</g>
	</g>
</g>
</svg>
